<svg width="24" height="24" viewBox="0 0 24 24" fill="none" xmlns="http://www.w3.org/2000/svg">
<path d="M11.18 8.933L14.412 3.337C15.762 3.685 16.9827 4.367 18.074 5.383C19.1653 6.399 19.9587 7.58233 20.454 8.933H11.18ZM8.888 11.26L5.673 5.606C6.52167 4.774 7.48733 4.13167 8.57 3.679C9.65267 3.22633 10.796 3 12 3C12.2553 3 12.547 3.01567 12.875 3.047C13.203 3.07833 13.4517 3.11067 13.621 3.144L8.888 11.26ZM3.288 14.23C3.188 13.8047 3.115 13.4127 3.069 13.054C3.023 12.6953 3 12.344 3 12C3 10.9447 3.179 9.93067 3.537 8.958C3.89433 7.98467 4.41667 7.07133 5.104 6.218L9.692 14.231L3.288 14.23ZM9.692 20.702C8.26467 20.328 6.99133 19.6267 5.872 18.598C4.75267 17.57 3.97133 16.374 3.528 15.01H12.93L9.692 20.702ZM12 21C11.75 21 11.48 20.9833 11.19 20.95C10.9 20.9167 10.6633 20.8833 10.48 20.85L15.19 12.856L18.346 18.375C17.51 19.207 16.5443 19.8527 15.449 20.312C14.3537 20.7713 13.204 21.0007 12 21ZM18.896 17.783L14.308 9.73H20.714C20.8007 10.1167 20.87 10.5027 20.922 10.888C20.974 11.2733 21 11.644 21 12C21 13.0773 20.8213 14.098 20.464 15.062C20.1073 16.026 19.5847 16.9327 18.896 17.782" fill="#070B67"/>
</svg>
