<svg width="24" height="24" viewBox="0 0 24 24" fill="none" xmlns="http://www.w3.org/2000/svg">
<path d="M17.2896 11.9691C17.2914 12.3217 17.1532 12.6606 16.9053 12.9113C16.6574 13.162 16.3201 13.304 15.9676 13.3061C15.7929 13.3052 15.6201 13.2699 15.4591 13.2022C15.2981 13.1345 15.152 13.0358 15.0291 12.9116C14.9063 12.7875 14.8091 12.6403 14.7431 12.4786C14.6771 12.3169 14.6436 12.1438 14.6446 11.9691C14.6435 11.7944 14.6769 11.6211 14.7428 11.4593C14.8088 11.2975 14.9059 11.1502 15.0288 11.0259C15.1517 10.9017 15.2978 10.8029 15.4589 10.7351C15.62 10.6674 15.7928 10.632 15.9676 10.6311C16.6976 10.6311 17.2896 11.2301 17.2896 11.9691Z" fill="#070B67"/>
<path fill-rule="evenodd" clip-rule="evenodd" d="M18.1322 7.40796C17.2832 7.28796 16.1902 7.28796 14.8272 7.28796H9.17318C7.81018 7.28796 6.71718 7.28796 5.86818 7.40796C4.99118 7.53296 4.26018 7.80096 3.71618 8.42796C3.17318 9.05596 3.00618 9.82496 3.00018 10.721C2.99418 11.587 3.13918 12.683 3.31918 14.05L3.68418 16.821C3.82518 17.89 3.93918 18.754 4.11618 19.431C4.30118 20.135 4.57318 20.72 5.08418 21.172C5.59518 21.624 6.20418 21.82 6.91818 21.912C7.60518 22 8.46818 22 9.53318 22H14.4672C15.5322 22 16.3952 22 17.0822 21.912C17.7972 21.82 18.4052 21.624 18.9162 21.172C19.4272 20.72 19.6992 20.135 19.8842 19.431C20.0612 18.754 20.1752 17.889 20.3162 16.821L20.6812 14.05C20.8612 12.683 21.0062 11.587 21.0002 10.72C20.9932 9.82496 20.8282 9.05596 20.2842 8.42896C19.7402 7.80096 19.0092 7.53296 18.1322 7.40796ZM6.05218 8.73196C5.32618 8.83596 4.95818 9.02396 4.71218 9.30996C4.46418 9.59496 4.32818 9.98796 4.32218 10.73C4.31718 11.492 4.44818 12.495 4.63718 13.925L4.68718 14.305L5.05818 14.032C6.01818 13.33 7.43418 13.364 8.34618 14.127L11.7302 16.96C12.0502 17.228 12.6012 17.278 12.9992 17.044L13.2342 16.906C14.3592 16.244 15.8682 16.314 16.9062 17.096L18.7382 18.476C18.8282 17.98 18.9092 17.371 19.0112 16.6L19.3632 13.925C19.5522 12.495 19.6832 11.492 19.6772 10.73C19.6722 9.98796 19.5362 9.59496 19.2892 9.30996C19.0422 9.02396 18.6742 8.83596 17.9472 8.73196C17.2022 8.62596 16.2022 8.62496 14.7752 8.62496H9.22518C7.79818 8.62496 6.79718 8.62596 6.05218 8.73196Z" fill="#070B67"/>
<path d="M8.85828 2H15.1403C15.3503 2 15.5103 2 15.6503 2.015C16.1291 2.06826 16.5839 2.25251 16.9648 2.54748C17.3457 2.84246 17.6379 3.23675 17.8093 3.687H6.18928C6.36064 3.23675 6.65283 2.84246 7.03373 2.54748C7.41462 2.25251 7.86947 2.06826 8.34828 2.015C8.48828 2 8.64828 2 8.85828 2ZM6.87928 4.5C5.62728 4.5 4.60128 5.34 4.25928 6.454L4.23828 6.524C4.59628 6.404 4.96828 6.324 5.34628 6.271C6.31928 6.132 7.54828 6.132 8.97528 6.132H15.1783C16.6053 6.132 17.8343 6.132 18.8063 6.271C19.1843 6.324 19.5563 6.403 19.9163 6.524L19.8953 6.454C19.5523 5.34 18.5263 4.5 17.2753 4.5H6.87928Z" fill="#070B67"/>
</svg>
