<svg width="24" height="24" viewBox="0 0 24 24" fill="none" xmlns="http://www.w3.org/2000/svg">
<path d="M2 6C2 5.46957 2.21071 4.96086 2.58579 4.58579C2.96086 4.21071 3.46957 4 4 4H5V11.174C3.87199 11.442 2.8362 12.0069 2 12.81V6ZM16 8.5H12C11.8674 8.5 11.7402 8.55268 11.6464 8.64645C11.5527 8.74021 11.5 8.86739 11.5 9V10C11.5 10.1326 11.5527 10.2598 11.6464 10.3536C11.7402 10.4473 11.8674 10.5 12 10.5H16C16.1326 10.5 16.2598 10.4473 16.3536 10.3536C16.4473 10.2598 16.5 10.1326 16.5 10V9C16.5 8.86739 16.4473 8.74021 16.3536 8.64645C16.2598 8.55268 16.1326 8.5 16 8.5ZM12.502 20H20C20.5304 20 21.0391 19.7893 21.4142 19.4142C21.7893 19.0391 22 18.5304 22 18V6C22 5.46957 21.7893 4.96086 21.4142 4.58579C21.0391 4.21071 20.5304 4 20 4H6.5V11C7.57025 10.9997 8.62402 11.2636 9.56775 11.7684C10.5115 12.2732 11.316 13.0032 11.9098 13.8936C12.5036 14.784 12.8683 15.8073 12.9716 16.8725C13.075 17.9378 12.9136 19.0121 12.502 20ZM10 9C10 8.46957 10.2107 7.96086 10.5858 7.58579C10.9609 7.21071 11.4696 7 12 7H16C16.5304 7 17.0391 7.21071 17.4142 7.58579C17.7893 7.96086 18 8.46957 18 9V10C18 10.5304 17.7893 11.0391 17.4142 11.4142C17.0391 11.7893 16.5304 12 16 12H12C11.4696 12 10.9609 11.7893 10.5858 11.4142C10.2107 11.0391 10 10.5304 10 10V9ZM6.5 12C7.95869 12 9.35764 12.5795 10.3891 13.6109C11.4205 14.6424 12 16.0413 12 17.5C12 18.9587 11.4205 20.3576 10.3891 21.3891C9.35764 22.4205 7.95869 23 6.5 23C5.04131 23 3.64236 22.4205 2.61091 21.3891C1.57946 20.3576 1 18.9587 1 17.5C1 16.0413 1.57946 14.6424 2.61091 13.6109C3.64236 12.5795 5.04131 12 6.5 12ZM7.001 20.503V18H9.497C9.62961 18 9.75679 17.9473 9.85055 17.8536C9.94432 17.7598 9.997 17.6326 9.997 17.5C9.997 17.3674 9.94432 17.2402 9.85055 17.1464C9.75679 17.0527 9.62961 17 9.497 17H7V14.5C7 14.3674 6.94732 14.2402 6.85355 14.1464C6.75979 14.0527 6.63261 14 6.5 14C6.36739 14 6.24021 14.0527 6.14645 14.1464C6.05268 14.2402 6 14.3674 6 14.5V17H3.496C3.36339 17 3.23621 17.0527 3.14245 17.1464C3.04868 17.2402 2.996 17.3674 2.996 17.5C2.996 17.6326 3.04868 17.7598 3.14245 17.8536C3.23621 17.9473 3.36339 18 3.496 18H6V20.503C6 20.6356 6.05268 20.7628 6.14645 20.8566C6.24021 20.9503 6.36739 21.003 6.5 21.003C6.63261 21.003 6.75979 20.9503 6.85355 20.8566C6.94732 20.7628 7.001 20.6356 7.001 20.503Z" fill="white"/>
</svg>
