<svg width="20" height="20" viewBox="0 0 20 20" fill="none" xmlns="http://www.w3.org/2000/svg">
<path fill-rule="evenodd" clip-rule="evenodd" d="M18.1253 10.0001L18.6441 9.7401V9.7376L18.6403 9.73385L18.6328 9.71885L18.6066 9.66885L18.5066 9.48885C18.3846 9.27835 18.2549 9.07238 18.1178 8.87135C17.6605 8.20004 17.1348 7.57796 16.5491 7.0151C15.1416 5.6651 12.9753 4.2876 10.0003 4.2876C7.02785 4.2876 4.86035 5.66385 3.45285 7.0151C2.86717 7.57796 2.34145 8.20004 1.8841 8.87135C1.69852 9.14516 1.52664 9.428 1.3691 9.71885L1.3616 9.73385L1.3591 9.7376V9.73885C1.3591 9.73885 1.35785 9.7401 1.8766 10.0001L1.35785 9.73885C1.31774 9.81987 1.29687 9.90906 1.29688 9.99947C1.29688 10.0899 1.31774 10.1791 1.35785 10.2601L1.3566 10.2626L1.36035 10.2663L1.36785 10.2813C1.40682 10.3594 1.44852 10.4362 1.49285 10.5113C2.0311 11.4206 2.68953 12.2531 3.45035 12.9863C4.8591 14.3363 7.02535 15.7113 10.0003 15.7113C12.9741 15.7113 15.1416 14.3363 16.5503 12.9851C17.1349 12.4216 17.6602 11.7996 18.1178 11.1288C18.2931 10.8708 18.4562 10.6047 18.6066 10.3313L18.6328 10.2813L18.6403 10.2663L18.6428 10.2626V10.2613C18.6428 10.2613 18.6441 10.2601 18.1253 10.0001ZM18.1253 10.0001L18.6441 10.2613C18.6842 10.1803 18.7051 10.0911 18.7051 10.0007C18.7051 9.91031 18.6842 9.82112 18.6441 9.7401L18.1253 10.0001ZM9.92535 8.0801C9.41613 8.0801 8.92777 8.28238 8.5677 8.64245C8.20763 9.00252 8.00535 9.49088 8.00535 10.0001C8.00535 10.5093 8.20763 10.9977 8.5677 11.3577C8.92777 11.7178 9.41613 11.9201 9.92535 11.9201C10.4346 11.9201 10.9229 11.7178 11.283 11.3577C11.6431 10.9977 11.8453 10.5093 11.8453 10.0001C11.8453 9.49088 11.6431 9.00252 11.283 8.64245C10.9229 8.28238 10.4346 8.0801 9.92535 8.0801ZM6.84785 10.0001C6.84785 9.18323 7.17235 8.39982 7.74996 7.82221C8.32757 7.2446 9.11098 6.9201 9.92785 6.9201C10.7447 6.9201 11.5281 7.2446 12.1057 7.82221C12.6833 8.39982 13.0078 9.18323 13.0078 10.0001C13.0078 10.817 12.6833 11.6004 12.1057 12.178C11.5281 12.7556 10.7447 13.0801 9.92785 13.0801C9.11098 13.0801 8.32757 12.7556 7.74996 12.178C7.17235 11.6004 6.84785 10.817 6.84785 10.0001Z" fill="white"/>
</svg>
