<svg width="19" height="20" viewBox="0 0 19 20" fill="none" xmlns="http://www.w3.org/2000/svg">
<path d="M4.19802 11.163L10.1189 17.0838C10.3605 17.3255 10.4765 17.6074 10.4669 17.9296C10.4572 18.2519 10.3311 18.5338 10.0886 18.7755C9.84698 18.997 9.56503 19.113 9.24281 19.1235C8.92059 19.1339 8.63865 19.0179 8.39698 18.7755L0.421978 10.8005C0.301144 10.6796 0.215353 10.5487 0.164603 10.4078C0.113853 10.2668 0.0892836 10.1158 0.0908947 9.95464C0.0925058 9.79353 0.11788 9.64249 0.167019 9.50151C0.216158 9.36054 0.301548 9.22964 0.423186 9.10881L8.39819 1.1338C8.61971 0.912277 8.89683 0.801514 9.22952 0.801514C9.56221 0.801514 9.84899 0.912277 10.0899 1.1338C10.3315 1.37547 10.4524 1.66265 10.4524 1.99535C10.4524 2.32804 10.3315 2.61482 10.0899 2.85568L4.19802 8.74631H17.7011C18.0435 8.74631 18.3307 8.86231 18.5627 9.09431C18.7947 9.32631 18.9103 9.61308 18.9095 9.95464C18.9087 10.2962 18.7927 10.5834 18.5615 10.8162C18.3303 11.049 18.0435 11.1646 17.7011 11.163H4.19802Z" fill="white"/>
</svg>
