<svg width="32" height="32" viewBox="0 0 32 32" fill="none" xmlns="http://www.w3.org/2000/svg">
<path d="M15.9996 2.66675C13.5242 2.66675 11.1503 3.65008 9.39992 5.40042C7.64958 7.15076 6.66625 9.52473 6.66625 12.0001V16.7041C6.66644 16.9109 6.61851 17.115 6.52625 17.3001L4.23691 21.8774C4.12508 22.101 4.07228 22.3495 4.08351 22.5993C4.09475 22.8491 4.16965 23.0919 4.30111 23.3045C4.43257 23.5172 4.61621 23.6928 4.8346 23.8145C5.053 23.9362 5.29889 24.0001 5.54892 24.0001H26.4502C26.7003 24.0001 26.9462 23.9362 27.1646 23.8145C27.383 23.6928 27.5666 23.5172 27.6981 23.3045C27.8295 23.0919 27.9044 22.8491 27.9157 22.5993C27.9269 22.3495 27.8741 22.101 27.7622 21.8774L25.4742 17.3001C25.3815 17.1151 25.3331 16.911 25.3329 16.7041V12.0001C25.3329 9.52473 24.3496 7.15076 22.5992 5.40042C20.8489 3.65008 18.4749 2.66675 15.9996 2.66675ZM15.9996 28.0001C15.172 28.0005 14.3647 27.7443 13.6889 27.2667C13.0131 26.7891 12.5021 26.1136 12.2262 25.3334H19.7729C19.4971 26.1136 18.986 26.7891 18.3102 27.2667C17.6344 27.7443 16.8271 28.0005 15.9996 28.0001Z" fill="white"/>
</svg>
