<svg width="21" height="20" viewBox="0 0 21 20" fill="none" xmlns="http://www.w3.org/2000/svg">
<path d="M10.5 0C8.52219 0 6.58879 0.58649 4.9443 1.6853C3.29981 2.78412 2.01809 4.3459 1.26121 6.17317C0.504333 8.00043 0.306299 10.0111 0.692152 11.9509C1.078 13.8907 2.03041 15.6725 3.42894 17.0711C4.82746 18.4696 6.60929 19.422 8.5491 19.8079C10.4889 20.1937 12.4996 19.9957 14.3268 19.2388C16.1541 18.4819 17.7159 17.2002 18.8147 15.5557C19.9135 13.9112 20.5 11.9778 20.5 10C20.5 8.68678 20.2413 7.38642 19.7388 6.17317C19.2363 4.95991 18.4997 3.85752 17.5711 2.92893C16.6425 2.00035 15.5401 1.26375 14.3268 0.761205C13.1136 0.258658 11.8132 0 10.5 0ZM8.5 14.5V5.5L14.5 10L8.5 14.5Z" fill="white"/>
</svg>
