<svg width="20" height="20" viewBox="0 0 20 20" fill="none" xmlns="http://www.w3.org/2000/svg">
<path d="M3.10742 9.09304H9.2911V2.90936H3.10742V9.09304ZM4.65334 4.45528H7.74518V7.54712H4.65334V4.45528ZM3.10742 16.8226H9.2911V10.639H3.10742V16.8226ZM4.65334 12.1849H7.74518V15.2767H4.65334V12.1849ZM10.837 2.90936V9.09304H17.0207V2.90936H10.837ZM15.4748 7.54712H12.3829V4.45528H15.4748V7.54712ZM10.8447 10.639H12.3907V12.1849H10.8447V10.639ZM12.3907 12.1849H13.9366V13.7308H12.3907V12.1849ZM10.8447 13.7308H12.3907V15.2767H10.8447V13.7308ZM13.9366 13.7308H15.4825V15.2767H13.9366V13.7308ZM15.4825 15.2767H17.0284V16.8226H15.4825V15.2767ZM12.3907 15.2767H13.9366V16.8226H12.3907V15.2767ZM13.9366 10.639H15.4825V12.1849H13.9366V10.639ZM15.4825 12.1849H17.0284V13.7308H15.4825V12.1849Z" fill="white"/>
</svg>
