<svg width="21" height="20" viewBox="0 0 21 20" fill="none" xmlns="http://www.w3.org/2000/svg">
<path d="M14.667 18.3334C13.9725 18.3334 13.3823 18.0904 12.8962 17.6042C12.41 17.1181 12.167 16.5279 12.167 15.8334C12.167 15.7501 12.1878 15.5556 12.2295 15.2501L6.37533 11.8334C6.1531 12.0417 5.89616 12.2051 5.60449 12.3234C5.31283 12.4417 5.00033 12.5006 4.66699 12.5001C3.97255 12.5001 3.38227 12.257 2.89616 11.7709C2.41005 11.2848 2.16699 10.6945 2.16699 10.0001C2.16699 9.30564 2.41005 8.71536 2.89616 8.22925C3.38227 7.74314 3.97255 7.50008 4.66699 7.50008C5.00033 7.50008 5.31283 7.55925 5.60449 7.67758C5.89616 7.79591 6.1531 7.95897 6.37533 8.16675L12.2295 4.75008C12.2017 4.65286 12.1845 4.55925 12.1778 4.46925C12.1712 4.37925 12.1675 4.27841 12.167 4.16675C12.167 3.4723 12.41 2.88203 12.8962 2.39591C13.3823 1.9098 13.9725 1.66675 14.667 1.66675C15.3614 1.66675 15.9517 1.9098 16.4378 2.39591C16.9239 2.88203 17.167 3.4723 17.167 4.16675C17.167 4.86119 16.9239 5.45147 16.4378 5.93758C15.9517 6.42369 15.3614 6.66675 14.667 6.66675C14.3337 6.66675 14.0212 6.60758 13.7295 6.48925C13.4378 6.37091 13.1809 6.20786 12.9587 6.00008L7.10449 9.41675C7.13227 9.51397 7.14977 9.60786 7.15699 9.69841C7.16421 9.78897 7.16755 9.88953 7.16699 10.0001C7.16644 10.1106 7.1631 10.2115 7.15699 10.3026C7.15088 10.3937 7.13338 10.4873 7.10449 10.5834L12.9587 14.0001C13.1809 13.7917 13.4378 13.6287 13.7295 13.5109C14.0212 13.3931 14.3337 13.334 14.667 13.3334C15.3614 13.3334 15.9517 13.5765 16.4378 14.0626C16.9239 14.5487 17.167 15.139 17.167 15.8334C17.167 16.5279 16.9239 17.1181 16.4378 17.6042C15.9517 18.0904 15.3614 18.3334 14.667 18.3334Z" fill="white"/>
</svg>
