<svg width="19" height="20" viewBox="0 0 19 20" fill="none" xmlns="http://www.w3.org/2000/svg">
<path d="M13.5284 7.95198L15.988 10.4115C16.3871 10.8053 16.7043 11.2742 16.9215 11.7911C17.1387 12.308 17.2514 12.8628 17.2533 13.4235C17.2552 13.9842 17.1461 14.5397 16.9325 15.058C16.7188 15.5764 16.4046 16.0474 16.0082 16.4438C15.6117 16.8403 15.1407 17.1544 14.6224 17.3681C14.104 17.5818 13.5485 17.6908 12.9878 17.689C12.4271 17.6871 11.8724 17.5743 11.3555 17.3572C10.8385 17.14 10.3697 16.8227 9.97589 16.4236L9.15655 15.6043C9.04576 15.4974 8.95738 15.3695 8.89655 15.2281C8.83571 15.0866 8.80366 14.9345 8.80225 14.7805C8.80084 14.6266 8.8301 14.4739 8.88833 14.3314C8.94656 14.1889 9.0326 14.0594 9.14141 13.9505C9.25022 13.8416 9.37963 13.7554 9.52209 13.697C9.66455 13.6387 9.81721 13.6093 9.97116 13.6105C10.1251 13.6118 10.2773 13.6437 10.4188 13.7044C10.5602 13.7651 10.6882 13.8534 10.7952 13.9641L11.6161 14.7842C11.9791 15.1439 12.4698 15.3452 12.9808 15.344C13.4919 15.3428 13.9816 15.1392 14.3429 14.7778C14.7042 14.4164 14.9077 13.9266 14.9087 13.4156C14.9098 12.9045 14.7083 12.4139 14.3485 12.051L11.889 9.59143C11.6231 9.32547 11.2855 9.14285 10.9174 9.06597C10.5493 8.98908 10.1667 9.02126 9.81666 9.15857C9.69195 9.20804 9.57498 9.25854 9.46574 9.31007L9.10708 9.4778C8.62785 9.69423 8.25915 9.78699 7.78996 9.31857C7.11594 8.64455 7.29063 8.02232 8.11228 7.45574C8.93078 6.89253 9.92068 6.63378 10.9101 6.72444C11.8995 6.81509 12.8259 7.24941 13.5284 7.95198ZM8.88292 3.3065L9.70226 4.12583C9.91357 4.34441 10.0306 4.63723 10.0281 4.94123C10.0256 5.24523 9.90378 5.5361 9.68891 5.75117C9.47404 5.96624 9.18329 6.08831 8.87929 6.0911C8.57529 6.09388 8.28236 5.97715 8.06359 5.76605L7.24348 4.94672C7.06527 4.7621 6.85208 4.61483 6.61635 4.51349C6.38062 4.41215 6.12707 4.35877 5.87049 4.35646C5.6139 4.35416 5.35943 4.40298 5.12192 4.50008C4.88441 4.59717 4.66861 4.7406 4.48712 4.92199C4.30564 5.10337 4.16209 5.31909 4.06486 5.55655C3.96763 5.794 3.91866 6.04844 3.92082 6.30503C3.92298 6.56161 3.97621 6.81519 4.07742 7.05098C4.17863 7.28677 4.32578 7.50004 4.51029 7.67835L6.96985 10.1379C7.23569 10.4039 7.57336 10.5865 7.94145 10.6634C8.30955 10.7403 8.69208 10.7081 9.04215 10.5708C9.16686 10.5213 9.28383 10.4708 9.39308 10.4193L9.75173 10.2515C10.231 10.0351 10.6004 9.94235 11.0689 10.4108C11.7429 11.0848 11.5682 11.707 10.7465 12.2736C9.92804 12.8368 8.93813 13.0956 7.94873 13.0049C6.95933 12.9142 6.03292 12.4799 5.3304 11.7774L2.87085 9.3178C2.47174 8.924 2.15447 8.45515 1.9373 7.93823C1.72014 7.42131 1.60737 6.86654 1.60549 6.30586C1.60361 5.74518 1.71266 5.18967 1.92636 4.67131C2.14005 4.15295 2.45418 3.68198 2.85064 3.28551C3.2471 2.88905 3.71807 2.57493 4.23643 2.36123C4.75479 2.14754 5.31031 2.03849 5.87099 2.04037C6.43167 2.04225 6.98644 2.15501 7.50335 2.37218C8.02027 2.58934 8.48913 2.90739 8.88292 3.3065Z" fill="white"/>
</svg>
